{
  "accessors": [
    {
      "bufferView": 2,
      "componentType": 5126,
      "count": 46,
      "max": [
        42.387603759765625,
        4.295872211456299,
        5.127059459686279
      ],
      "min": [
        -42.387603759765625,
        -28.36194610595703,
        3.7270569801330566
      ],
      "type": "VEC3"
    },
    {
      "bufferView": 2,
      "byteOffset": 552,
      "componentType": 5126,
      "count": 46,
      "max": [
        0.7133423686027527,
        1.0,
        1.0
      ],
      "min": [
        -0.7133423686027527,
        -1.0,
        0.0
      ],
      "type": "VEC3"
    },
    {
      "bufferView": 3,
      "componentType": 5126,
      "count": 46,
      "max": [
        1.0,
        0.4705362617969513,
        9.77781695610247e-08,
        1.0
      ],
      "min": [
        0.0,
        -0.47053632140159607,
        -1.0,
        1.0
      ],
      "type": "VEC4"
    },
    {
      "bufferView": 1,
      "componentType": 5126,
      "count": 46,
      "max": [
        0.998490571975708,
        0.9822579026222229
      ],
      "min": [
        0.0015069842338562012,
        0.0015078871510922909
      ],
      "type": "VEC2"
    },
    {
      "bufferView": 1,
      "byteOffset": 368,
      "componentType": 5126,
      "count": 46,
      "max": [
        0.998490571975708,
        0.9822579026222229
      ],
      "min": [
        0.0015069842338562012,
        0.0015078871510922909
      ],
      "type": "VEC2"
    },
    {
      "bufferView": 0,
      "componentType": 5125,
      "count": 84,
      "type": "SCALAR"
    },
    {
      "bufferView": 2,
      "byteOffset": 1104,
      "componentType": 5126,
      "count": 32,
      "max": [
        5.446279525756836,
        0.6654261946678162,
        17.333106994628906
      ],
      "min": [
        -4.427386283874512,
        0.6654250621795654,
        7.4594407081604
      ],
      "type": "VEC3"
    },
    {
      "bufferView": 2,
      "byteOffset": 1488,
      "componentType": 5126,
      "count": 32,
      "max": [
        2.9887364420356013e-14,
        -1.0,
        1.2065581245224166e-07
      ],
      "min": [
        2.9887364420356013e-14,
        -1.0,
        1.2065581245224166e-07
      ],
      "type": "VEC3"
    },
    {
      "bufferView": 1,
      "byteOffset": 736,
      "componentType": 5126,
      "count": 32,
      "max": [
        0.0,
        0.0
      ],
      "min": [
        0.0,
        0.0
      ],
      "type": "VEC2"
    },
    {
      "bufferView": 0,
      "byteOffset": 336,
      "componentType": 5125,
      "count": 90,
      "type": "SCALAR"
    },
    {
      "bufferView": 2,
      "byteOffset": 1872,
      "componentType": 5126,
      "count": 672,
      "max": [
        14.432623863220215,
        0.5104788541793823,
        19.368921279907227
      ],
      "min": [
        -14.432623863220215,
        -9.22474193572998,
        5.094305038452148
      ],
      "type": "VEC3"
    },
    {
      "bufferView": 2,
      "byteOffset": 9936,
      "componentType": 5126,
      "count": 672,
      "max": [
        1.0,
        1.0,
        1.0
      ],
      "min": [
        -1.0,
        -1.0,
        -1.0
      ],
      "type": "VEC3"
    },
    {
      "bufferView": 1,
      "byteOffset": 992,
      "componentType": 5126,
      "count": 672,
      "max": [
        0.875,
        1.011395812034607
      ],
      "min": [
        0.0,
        -0.0004141749523114413
      ],
      "type": "VEC2"
    },
    {
      "bufferView": 0,
      "byteOffset": 696,
      "componentType": 5125,
      "count": 1374,
      "type": "SCALAR"
    },
    {
      "bufferView": 2,
      "byteOffset": 18000,
      "componentType": 5126,
      "count": 4752,
      "max": [
        13.63185977935791,
        0.04526495561003685,
        19.012439727783203
      ],
      "min": [
        -13.63185977935791,
        -8.36407470703125,
        5.322464942932129
      ],
      "type": "VEC3"
    },
    {
      "bufferView": 2,
      "byteOffset": 75024,
      "componentType": 5126,
      "count": 4752,
      "max": [
        1.0,
        0.9720799922943115,
        1.0
      ],
      "min": [
        -1.0,
        -0.9720803499221802,
        -1.0
      ],
      "type": "VEC3"
    },
    {
      "bufferView": 1,
      "byteOffset": 6368,
      "componentType": 5126,
      "count": 4752,
      "max": [
        1.0,
        1.0
      ],
      "min": [
        7.450580596923828e-08,
        0.01000000536441803
      ],
      "type": "VEC2"
    },
    {
      "bufferView": 0,
      "byteOffset": 6192,
      "componentType": 5125,
      "count": 8712,
      "type": "SCALAR"
    },
    {
      "bufferView": 2,
      "byteOffset": 132048,
      "componentType": 5126,
      "count": 1488,
      "max": [
        84.15018463134766,
        -13.77362060546875,
        3.727055788040161
      ],
      "min": [
        -86.84976196289063,
        -90.282958984375,
        1.8938119411468506
      ],
      "type": "VEC3"
    },
    {
      "bufferView": 2,
      "byteOffset": 149904,
      "componentType": 5126,
      "count": 1488,
      "max": [
        0.4389130771160126,
        2.5350257146783406e-06,
        1.0
      ],
      "min": [
        -0.43991032242774963,
        -1.0,
        -7.06213540979661e-05
      ],
      "type": "VEC3"
    },
    {
      "bufferView": 3,
      "byteOffset": 736,
      "componentType": 5126,
      "count": 1488,
      "max": [
        1.0,
        1.0,
        1.0,
        1.0
      ],
      "min": [
        -1.0,
        -1.0,
        -1.0,
        1.0
      ],
      "type": "VEC4"
    },
    {
      "bufferView": 1,
      "byteOffset": 44384,
      "componentType": 5126,
      "count": 1488,
      "max": [
        0.9995248913764954,
        0.9123302698135376
      ],
      "min": [
        0.0004743635654449463,
        0.0004745274782180786
      ],
      "type": "VEC2"
    },
    {
      "bufferView": 1,
      "byteOffset": 56288,
      "componentType": 5126,
      "count": 1488,
      "max": [
        0.9995248913764954,
        0.9123302698135376
      ],
      "min": [
        0.0004743635654449463,
        0.0004745274782180786
      ],
      "type": "VEC2"
    },
    {
      "bufferView": 0,
      "byteOffset": 41040,
      "componentType": 5125,
      "count": 2232,
      "type": "SCALAR"
    },
    {
      "bufferView": 2,
      "byteOffset": 167760,
      "componentType": 5126,
      "count": 1364,
      "max": [
        68.6423568725586,
        -17.00945281982422,
        3.727055311203003
      ],
      "min": [
        -72.48141479492188,
        -90.282958984375,
        1.8938125371932983
      ],
      "type": "VEC3"
    },
    {
      "bufferView": 2,
      "byteOffset": 184128,
      "componentType": 5126,
      "count": 1364,
      "max": [
        0.43891727924346924,
        2.112556558131473e-06,
        1.0
      ],
      "min": [
        -0.4399118423461914,
        -1.0,
        -4.091795926797204e-05
      ],
      "type": "VEC3"
    },
    {
      "bufferView": 1,
      "byteOffset": 68192,
      "componentType": 5126,
      "count": 1364,
      "max": [
        0.5243310928344727,
        0.999636173248291
      ],
      "min": [
        0.07567782700061798,
        0.028925098478794098
      ],
      "type": "VEC2"
    },
    {
      "bufferView": 0,
      "byteOffset": 49968,
      "componentType": 5125,
      "count": 2046,
      "type": "SCALAR"
    }
  ],
  "asset": {
    "extras": {
      "author": "shahidulsobuj (https://sketchfab.com/shahidulsobuj)",
      "license": "CC-BY-4.0 (http://creativecommons.org/licenses/by/4.0/)",
      "source": "https://sketchfab.com/3d-models/6df93c5bc36445d49a1a262035b1aebf",
      "title": "শহীদ মিনার"
    },
    "generator": "Sketchfab-14.87.0",
    "version": "2.0"
  },
  "bufferViews": [
    {
      "buffer": 0,
      "byteLength": 58152,
      "name": "floatBufferViews",
      "target": 34963
    },
    {
      "buffer": 0,
      "byteLength": 79104,
      "byteOffset": 58152,
      "byteStride": 8,
      "name": "floatBufferViews",
      "target": 34962
    },
    {
      "buffer": 0,
      "byteLength": 200496,
      "byteOffset": 137256,
      "byteStride": 12,
      "name": "floatBufferViews",
      "target": 34962
    },
    {
      "buffer": 0,
      "byteLength": 24544,
      "byteOffset": 337752,
      "byteStride": 16,
      "name": "floatBufferViews",
      "target": 34962
    }
  ],
  "buffers": [
    {
      "byteLength": 362296,
      "uri": "scene.bin"
    }
  ],
  "images": [
    {
      "uri": "textures/brick.001_baseColor.png"
    },
    {
      "uri": "textures/brick.001_metallicRoughness.png"
    },
    {
      "uri": "textures/brick.001_normal.png"
    }
  ],
  "materials": [
    {
      "doubleSided": true,
      "name": "shohid_minar__0",
      "pbrMetallicRoughness": {
        "metallicFactor": 0.0,
        "roughnessFactor": 0.6
      }
    },
    {
      "doubleSided": true,
      "name": "brick.001",
      "normalTexture": {
        "index": 2
      },
      "pbrMetallicRoughness": {
        "baseColorTexture": {
          "index": 0
        },
        "metallicRoughnessTexture": {
          "index": 1
        },
        "roughnessFactor": 0.936321961325519
      }
    },
    {
      "doubleSided": true,
      "name": "Red.001",
      "pbrMetallicRoughness": {
        "baseColorFactor": [
          0.8,
          0.00917341,
          0.0,
          1.0
        ],
        "metallicFactor": 0.0
      }
    },
    {
      "doubleSided": true,
      "name": "M_UE4Man_Body.001",
      "pbrMetallicRoughness": {
        "baseColorFactor": [
          0.00777783,
          0.00777783,
          0.00777783,
          1.0
        ],
        "metallicFactor": 0.0,
        "roughnessFactor": 0.9983551892132149
      }
    },
    {
      "doubleSided": true,
      "name": "white",
      "pbrMetallicRoughness": {
        "baseColorFactor": [
          0.8,
          0.8,
          0.8,
          1.0
        ],
        "metallicFactor": 0.0,
        "roughnessFactor": 0.8211145618000169
      }
    }
  ],
  "meshes": [
    {
      "name": "Pavement_brick.001_0",
      "primitives": [
        {
          "attributes": {
            "NORMAL": 1,
            "POSITION": 0,
            "TANGENT": 2,
            "TEXCOORD_0": 3,
            "TEXCOORD_1": 4
          },
          "indices": 5,
          "material": 1,
          "mode": 4
        }
      ]
    },
    {
      "name": "Circle_Red.001_0",
      "primitives": [
        {
          "attributes": {
            "NORMAL": 7,
            "POSITION": 6,
            "TEXCOORD_0": 8
          },
          "indices": 9,
          "material": 2,
          "mode": 4
        }
      ]
    },
    {
      "name": "shohid minar__0",
      "primitives": [
        {
          "attributes": {
            "NORMAL": 11,
            "POSITION": 10,
            "TEXCOORD_0": 12
          },
          "indices": 13,
          "material": 0,
          "mode": 4
        }
      ]
    },
    {
      "name": "steel_M_UE4Man_Body.001_0",
      "primitives": [
        {
          "attributes": {
            "NORMAL": 15,
            "POSITION": 14,
            "TEXCOORD_0": 16
          },
          "indices": 17,
          "material": 3,
          "mode": 4
        }
      ]
    },
    {
      "name": "pavement 2_brick.001_0",
      "primitives": [
        {
          "attributes": {
            "NORMAL": 19,
            "POSITION": 18,
            "TANGENT": 20,
            "TEXCOORD_0": 21,
            "TEXCOORD_1": 22
          },
          "indices": 23,
          "material": 1,
          "mode": 4
        }
      ]
    },
    {
      "name": "pavement 3_white_0",
      "primitives": [
        {
          "attributes": {
            "NORMAL": 25,
            "POSITION": 24,
            "TEXCOORD_0": 26
          },
          "indices": 27,
          "material": 4,
          "mode": 4
        }
      ]
    }
  ],
  "nodes": [
    {
      "children": [
        1
      ],
      "matrix": [
        0.5,
        0.0,
        0.0,
        0.0,
        0.0,
        1.914284336104021e-16,
        -0.5,
        0.0,
        0.0,
        0.5,
        1.914284336104021e-16,
        0.0,
        0.0,
        0.0,
        0.0,
        1.0
      ],
      "name": "Sketchfab_model"
    },
    {
      "children": [
        2
      ],
      "matrix": [
        0.009999999776482582,
        0.0,
        0.0,
        0.0,
        0.0,
        0.0,
        0.009999999776482582,
        0.0,
        0.0,
        -0.009999999776482582,
        0.0,
        0.0,
        0.0,
        0.0,
        0.0,
        1.0
      ],
      "name": "shoheed minar for  sketchfab.fbx"
    },
    {
      "children": [
        3,
        5,
        7,
        9,
        11,
        13
      ],
      "name": "RootNode"
    },
    {
      "children": [
        4
      ],
      "matrix": [
        100.0,
        0.0,
        0.0,
        0.0,
        0.0,
        -2.8212996916465727e-05,
        -99.99999999999602,
        0.0,
        0.0,
        99.99999999999602,
        -2.8212996916465727e-05,
        0.0,
        0.0,
        0.0,
        0.0,
        1.0
      ],
      "name": "Pavement"
    },
    {
      "mesh": 0,
      "name": "Pavement_brick.001_0"
    },
    {
      "children": [
        6
      ],
      "matrix": [
        100.0,
        0.0,
        0.0,
        0.0,
        0.0,
        -2.8212996916465727e-05,
        -99.99999999999602,
        0.0,
        0.0,
        99.99999999999602,
        -2.8212996916465727e-05,
        0.0,
        0.0,
        0.0,
        0.0,
        1.0
      ],
      "name": "Circle"
    },
    {
      "mesh": 1,
      "name": "Circle_Red.001_0"
    },
    {
      "children": [
        8
      ],
      "matrix": [
        100.0,
        0.0,
        0.0,
        0.0,
        0.0,
        -2.8212996916465727e-05,
        -99.99999999999602,
        0.0,
        0.0,
        99.99999999999602,
        -2.8212996916465727e-05,
        0.0,
        0.0,
        0.0,
        0.0,
        1.0
      ],
      "name": "shohid minar"
    },
    {
      "mesh": 2,
      "name": "shohid minar__0"
    },
    {
      "children": [
        10
      ],
      "matrix": [
        100.0,
        0.0,
        0.0,
        0.0,
        0.0,
        -2.8212996916465727e-05,
        -99.99999999999602,
        0.0,
        0.0,
        99.99999999999602,
        -2.8212996916465727e-05,
        0.0,
        0.0,
        0.0,
        0.0,
        1.0
      ],
      "name": "steel"
    },
    {
      "mesh": 3,
      "name": "steel_M_UE4Man_Body.001_0"
    },
    {
      "children": [
        12
      ],
      "matrix": [
        100.0,
        0.0,
        0.0,
        0.0,
        0.0,
        -2.8212996916465727e-05,
        -99.99999999999602,
        0.0,
        0.0,
        99.99999999999602,
        -2.8212996916465727e-05,
        0.0,
        0.0,
        0.0,
        0.0,
        1.0
      ],
      "name": "pavement 2"
    },
    {
      "mesh": 4,
      "name": "pavement 2_brick.001_0"
    },
    {
      "children": [
        14
      ],
      "matrix": [
        100.0,
        0.0,
        0.0,
        0.0,
        0.0,
        -2.8212996916465727e-05,
        -99.99999999999602,
        0.0,
        0.0,
        99.99999999999602,
        -2.8212996916465727e-05,
        0.0,
        0.0,
        0.0,
        0.0,
        1.0
      ],
      "name": "pavement 3"
    },
    {
      "mesh": 5,
      "name": "pavement 3_white_0"
    }
  ],
  "samplers": [
    {
      "magFilter": 9729,
      "minFilter": 9987,
      "wrapS": 10497,
      "wrapT": 10497
    }
  ],
  "scene": 0,
  "scenes": [
    {
      "name": "Sketchfab_Scene",
      "nodes": [
        0
      ]
    }
  ],
  "textures": [
    {
      "sampler": 0,
      "source": 0
    },
    {
      "sampler": 0,
      "source": 1
    },
    {
      "sampler": 0,
      "source": 2
    }
  ]
}
